<?xml version="1.0" encoding="UTF-8" standalone="no"?>
<!-- Created with Inkscape (http://www.inkscape.org/) -->
<svg
   xmlns:dc="http://purl.org/dc/elements/1.1/"
   xmlns:cc="http://creativecommons.org/ns#"
   xmlns:rdf="http://www.w3.org/1999/02/22-rdf-syntax-ns#"
   xmlns:svg="http://www.w3.org/2000/svg"
   xmlns="http://www.w3.org/2000/svg"
   xmlns:sodipodi="http://sodipodi.sourceforge.net/DTD/sodipodi-0.dtd"
   xmlns:inkscape="http://www.inkscape.org/namespaces/inkscape"
   width="115.88871"
   height="115.88871"
   id="svg10205"
   sodipodi:version="0.32"
   inkscape:version="0.45+devel"
   version="1.0"
   sodipodi:docbase="/home/nernst/Desktop"
   sodipodi:docname="position.svg"
   inkscape:output_extension="org.inkscape.output.svg.inkscape">
  <defs
     id="defs10207" />
  <sodipodi:namedview
     id="base"
     pagecolor="#ffffff"
     bordercolor="#666666"
     borderopacity="1.0"
     gridtolerance="10000"
     guidetolerance="10"
     objecttolerance="10"
     inkscape:pageopacity="0.0"
     inkscape:pageshadow="2"
     inkscape:zoom="4.7072082"
     inkscape:cx="60.64726"
     inkscape:cy="66.495126"
     inkscape:document-units="px"
     inkscape:current-layer="layer1"
     inkscape:window-width="1280"
     inkscape:window-height="980"
     inkscape:window-x="0"
     inkscape:window-y="22"
     showgrid="false" />
  <metadata
     id="metadata10210">
    <rdf:RDF>
      <cc:Work
         rdf:about="">
        <dc:format>image/svg+xml</dc:format>
        <dc:type
           rdf:resource="http://purl.org/dc/dcmitype/StillImage" />
      </cc:Work>
    </rdf:RDF>
  </metadata>
  <g
     inkscape:label="Layer 1"
     inkscape:groupmode="layer"
     id="layer1"
     transform="translate(-42.055643,-51.560686)">
    <path
       transform="matrix(9.734261e-3,0.8317072,-0.9812619,7.9451042e-3,156.50251,61.16192)"
       d="M 95.385624,58.211208 A 37.495686,56.82774 0 1 1 20.394253,58.211208 A 37.495686,56.82774 0 1 1 95.385624,58.211208 z"
       sodipodi:ry="56.82774"
       sodipodi:rx="37.495686"
       sodipodi:cy="58.211208"
       sodipodi:cx="57.889938"
       id="path3646"
       style="opacity:1;fill:#ececec;fill-opacity:1;stroke:#000000;stroke-width:2.54583094;stroke-linecap:butt;marker-start:none;stroke-miterlimit:4;stroke-dasharray:none;stroke-opacity:1"
       sodipodi:type="arc" />
    <path
       sodipodi:type="arc"
       style="opacity:1;fill:#ececec;fill-opacity:1;stroke:#000000;stroke-width:2.54583098;stroke-linecap:butt;marker-start:none;stroke-miterlimit:4;stroke-dasharray:none;stroke-opacity:1"
       id="path4079"
       sodipodi:cx="57.889938"
       sodipodi:cy="58.211208"
       sodipodi:rx="37.495686"
       sodipodi:ry="56.82774"
       d="M 95.385624,58.211208 A 37.495686,56.82774 0 1 1 20.394253,58.211208 A 37.495686,56.82774 0 1 1 95.385624,58.211208 z"
       transform="matrix(-0.8317207,-8.4990796e-3,1.3566042e-2,-0.9812003,147.30415,167.38076)" />
    <path
       sodipodi:type="arc"
       style="opacity:1;fill:#ececec;fill-opacity:1;stroke:none;stroke-width:2.29999995;stroke-linecap:butt;stroke-miterlimit:4;stroke-dasharray:none;stroke-opacity:1"
       id="path4137"
       sodipodi:cx="36.114826"
       sodipodi:cy="42.384418"
       sodipodi:rx="14.12727"
       sodipodi:ry="11.153108"
       d="M 50.242096,42.384418 A 14.12727,11.153108 0 1 1 21.987556,42.384418 A 14.12727,11.153108 0 1 1 50.242096,42.384418 z"
       transform="translate(42.055643,51.560686)" />
    <path
       sodipodi:type="arc"
       style="opacity:1;fill:#ececec;fill-opacity:1;stroke:none;stroke-width:2.29999995;stroke-linecap:butt;stroke-miterlimit:4;stroke-dasharray:none;stroke-opacity:1"
       id="path4139"
       sodipodi:cx="33.193771"
       sodipodi:cy="77.171494"
       sodipodi:rx="8.1258354"
       sodipodi:ry="7.8071752"
       d="M 41.319607,77.171494 A 8.1258354,7.8071752 0 1 1 25.067936,77.171494 A 8.1258354,7.8071752 0 1 1 41.319607,77.171494 z"
       transform="translate(42.055643,51.560686)" />
    <path
       sodipodi:type="arc"
       style="opacity:1;fill:#ececec;fill-opacity:1;stroke:none;stroke-width:2.29999995;stroke-linecap:butt;stroke-miterlimit:4;stroke-dasharray:none;stroke-opacity:1"
       id="path4141"
       sodipodi:cx="27.988989"
       sodipodi:cy="60.919823"
       sodipodi:rx="7.4885154"
       sodipodi:ry="12.799519"
       d="M 35.477504,60.919823 A 7.4885154,12.799519 0 1 1 20.500473,60.919823 A 7.4885154,12.799519 0 1 1 35.477504,60.919823 z"
       transform="translate(42.055643,51.560686)" />
    <path
       sodipodi:type="arc"
       style="opacity:1;fill:#ececec;fill-opacity:1;stroke:none;stroke-width:2.29999995;stroke-linecap:butt;stroke-miterlimit:4;stroke-dasharray:none;stroke-opacity:1"
       id="path4143"
       sodipodi:cx="82.426781"
       sodipodi:cy="41.109779"
       sodipodi:rx="10.622007"
       sodipodi:ry="9.4535866"
       d="M 93.048788,41.109779 A 10.622007,9.4535866 0 1 1 71.804773,41.109779 A 10.622007,9.4535866 0 1 1 93.048788,41.109779 z"
       transform="translate(42.055643,51.560686)" />
    <path
       sodipodi:type="arc"
       style="opacity:1;fill:#ececec;fill-opacity:1;stroke:none;stroke-width:2.29999995;stroke-linecap:butt;stroke-miterlimit:4;stroke-dasharray:none;stroke-opacity:1"
       id="path4147"
       sodipodi:cx="76.053574"
       sodipodi:cy="71.913597"
       sodipodi:rx="19.332054"
       sodipodi:ry="14.12727"
       d="M 95.385628,71.913597 A 19.332054,14.12727 0 1 1 56.721519,71.913597 A 19.332054,14.12727 0 1 1 95.385628,71.913597 z"
       transform="translate(42.055643,51.560686)" />
    <path
       sodipodi:type="arc"
       style="opacity:1;fill:#ececec;fill-opacity:1;stroke:none;stroke-width:2.29999995;stroke-linecap:butt;stroke-miterlimit:4;stroke-dasharray:none;stroke-opacity:1"
       id="path4149"
       sodipodi:cx="87.684669"
       sodipodi:cy="53.271976"
       sodipodi:rx="8.3382759"
       sodipodi:ry="9.6129169"
       d="M 96.022945,53.271976 A 8.3382759,9.6129169 0 1 1 79.346394,53.271976 A 8.3382759,9.6129169 0 1 1 96.022945,53.271976 z"
       transform="translate(42.055643,51.560686)" />
  </g>
</svg>
