<?xml version="1.0" encoding="UTF-8" standalone="no"?>
<!-- Created with Inkscape (http://www.inkscape.org/) -->
<svg
   xmlns:dc="http://purl.org/dc/elements/1.1/"
   xmlns:cc="http://web.resource.org/cc/"
   xmlns:rdf="http://www.w3.org/1999/02/22-rdf-syntax-ns#"
   xmlns:svg="http://www.w3.org/2000/svg"
   xmlns="http://www.w3.org/2000/svg"
   xmlns:sodipodi="http://sodipodi.sourceforge.net/DTD/sodipodi-0.dtd"
   xmlns:inkscape="http://www.inkscape.org/namespaces/inkscape"
   width="115.88871"
   height="115.88871"
   id="svg10205"
   sodipodi:version="0.32"
   inkscape:version="0.45"
   version="1.0"
   sodipodi:docbase="/home/nernst/Desktop"
   sodipodi:docname="position.svg"
   inkscape:output_extension="org.inkscape.output.svg.inkscape"
   sodipodi:modified="true">
  <defs
     id="defs10207" />
  <sodipodi:namedview
     id="base"
     pagecolor="#ffffff"
     bordercolor="#666666"
     borderopacity="1.0"
     gridtolerance="10000"
     guidetolerance="10"
     objecttolerance="10"
     inkscape:pageopacity="0.0"
     inkscape:pageshadow="2"
     inkscape:zoom="4.7072082"
     inkscape:cx="53.396908"
     inkscape:cy="44.899922"
     inkscape:document-units="px"
     inkscape:current-layer="layer1"
     inkscape:window-width="1280"
     inkscape:window-height="993"
     inkscape:window-x="0"
     inkscape:window-y="0" />
  <metadata
     id="metadata10210">
    <rdf:RDF>
      <cc:Work
         rdf:about="">
        <dc:format>image/svg+xml</dc:format>
        <dc:type
           rdf:resource="http://purl.org/dc/dcmitype/StillImage" />
      </cc:Work>
    </rdf:RDF>
  </metadata>
  <g
     inkscape:label="Layer 1"
     inkscape:groupmode="layer"
     id="layer1"
     transform="translate(-42.055643,-51.560686)">
    <path
       transform="matrix(1.3989212,0,0,1.8207421,57.136321,32.847793)"
       style="fill:#ececec;fill-opacity:1;stroke:#000000;stroke-width:1.60300004;stroke-linecap:butt;stroke-miterlimit:4;stroke-dashoffset:0;stroke-opacity:1"
       d="M 50.540267,27.24154 C 50.817075,27.317221 52.125242,27.631559 52.397626,27.710133 C 52.67001,27.788708 52.940157,27.868717 53.208011,27.950137 C 53.475866,28.031558 53.74143,28.114389 54.00465,28.198607 C 54.26787,28.282825 54.528746,28.368431 54.787225,28.4554 C 55.045704,28.542369 55.301786,28.630701 55.555418,28.720373 C 55.809051,28.810045 56.060234,28.901057 56.308914,28.993385 C 56.557594,29.085712 56.803772,29.179356 57.047394,29.274291 C 57.291017,29.369227 57.532084,29.465454 57.770542,29.56295 C 58.009001,29.660446 58.244852,29.75921 58.478041,29.859219 C 58.71123,29.959228 58.941759,30.060481 59.169573,30.162955 C 59.397387,30.265429 59.622488,30.369124 59.844821,30.474016 C 60.067155,30.578908 60.286722,30.684997 60.503469,30.792259 C 60.720216,30.899521 60.934144,31.007957 61.145199,31.117541 C 61.356254,31.227126 61.564436,31.33786 61.769693,31.44972 C 61.97495,31.56158 62.177282,31.674566 62.376636,31.788653 C 62.575989,31.902741 62.772364,32.01793 62.965709,32.134198 C 63.159053,32.250465 63.349366,32.367811 63.536595,32.486211 C 63.723825,32.604611 63.90797,32.724065 64.088979,32.84455 C 64.269987,32.965035 64.447859,33.08655 64.622541,33.209073 C 64.797223,33.331595 64.968716,33.455124 65.136966,33.579636 C 65.305216,33.704149 65.470223,33.829644 65.631936,33.956098 C 65.793648,34.082553 65.952065,34.209966 66.107134,34.338315 C 66.262202,34.466665 66.413923,34.595949 66.562242,34.726146 C 66.710562,34.856342 66.85548,34.98745 66.996945,35.119446 C 67.138409,35.251442 67.27642,35.384326 67.410924,35.518074 C 67.545428,35.651822 67.676425,35.786435 67.803863,35.921887 C 67.9313,36.05734 68.055178,36.193633 68.175444,36.330743 C 68.295709,36.467852 68.412362,36.605779 68.52535,36.744498 C 68.638338,36.883217 68.74766,37.022729 68.853265,37.16301 C 68.958869,37.303291 69.060755,37.444341 69.15887,37.586136 C 69.256986,37.727932 69.35133,37.870472 69.44185,38.013734 C 69.53237,38.156997 69.619067,38.30098 69.701886,38.445662 C 69.784706,38.590343 69.863649,38.735722 69.938662,38.881775 C 70.013676,39.027828 70.084759,39.174556 70.151861,39.321933 C 70.218962,39.46931 70.282081,39.617338 70.341165,39.765992 C 70.400249,39.914646 70.455297,40.063926 70.506257,40.213809 C 70.557218,40.363692 70.60409,40.514177 70.646821,40.665242 C 70.689552,40.816306 70.728142,40.96795 70.762539,41.120148 C 70.796935,41.272347 70.827137,41.4251 70.853093,41.578385 C 70.879049,41.73167 70.900758,41.885486 70.918168,42.03981 C 70.935577,42.194134 70.948687,42.348965 70.957445,42.50428 C 70.966203,42.659595 70.970608,42.815394 70.970608,42.971653 C 70.970608,43.284171 70.952987,43.594848 70.918168,43.903496 C 70.883349,44.212143 70.831331,44.518761 70.762539,44.823158 C 70.693746,45.127555 70.608178,45.429731 70.506257,45.729497 C 70.404337,46.029263 70.286064,46.326618 70.151861,46.621373 C 70.017658,46.916128 69.867526,47.208282 69.701886,47.497644 C 69.536247,47.787007 69.355101,48.073579 69.15887,48.35717 C 68.96264,48.640761 68.751326,48.92137 68.52535,49.198808 C 68.299375,49.476247 68.058738,49.750513 67.803863,50.021419 C 67.548988,50.292324 67.279874,50.559868 66.996945,50.82386 C 66.714016,51.087852 66.417271,51.348292 66.107134,51.604991 C 65.796996,51.861689 65.473466,52.114645 65.136966,52.36367 C 64.800466,52.612694 64.450996,52.857786 64.088979,53.098756 C 63.726961,53.339726 63.352397,53.576573 62.965709,53.809108 C 62.57902,54.041643 62.180207,54.269866 61.769693,54.493586 C 61.359179,54.717306 60.936963,54.936523 60.503469,55.151047 C 60.069975,55.365571 59.625202,55.575402 59.169573,55.780351 C 58.713944,55.985299 58.24746,56.185364 57.770542,56.380356 C 57.293625,56.575348 56.806275,56.765266 56.308914,56.949921 C 55.811553,57.134576 55.304183,57.313968 54.787225,57.487906 C 54.270267,57.661844 53.743721,57.830328 53.208011,57.993169 C 52.672302,58.156009 52.127427,58.313206 51.573811,58.464568 C 51.020195,58.615931 50.310189,58.885214 49.739512,59.024718 M 12.288495,59.182123 C 12.596023,59.268296 11.774581,58.99433 11.500916,58.900963 C 11.240451,58.8121 10.932319,58.759953 10.651193,58.687213 C 10.370067,58.614472 10.091073,58.540249 9.8142655,58.464568 C 9.5374575,58.388887 9.2628349,58.311747 8.9904506,58.233173 C 8.7180663,58.154598 8.4479203,58.074589 8.1800653,57.993169 C 7.9122104,57.911748 7.6466466,57.828917 7.3834268,57.744699 C 7.120207,57.660481 6.8593311,57.574875 6.6008521,57.487906 C 6.3423731,57.400937 6.0862909,57.312605 5.8326584,57.222933 C 5.5790259,57.133261 5.3278431,57.042249 5.0791628,56.949921 C 4.8304826,56.857594 4.5843048,56.76395 4.3406825,56.669015 C 4.0970601,56.574079 3.8559931,56.477852 3.6175344,56.380356 C 3.3790757,56.28286 3.1432252,56.184096 2.9100358,56.084087 C 2.6768464,55.984078 2.4463181,55.882825 2.2185038,55.780351 C 1.9906894,55.677877 1.765589,55.574182 1.5432555,55.46929 C 1.3209219,55.364398 1.1013551,55.258309 0.88460793,55.151047 C 0.66786079,55.043785 0.45393331,54.935349 0.24287833,54.825765 C 0.03182336,54.71618 -0.17635911,54.605446 -0.38161621,54.493586 C -0.58687332,54.381726 -0.78920506,54.26874 -0.98855859,54.154653 C -1.1879121,54.040565 -1.3842874,53.925376 -1.5776317,53.809108 C -1.7709759,53.692841 -1.9612891,53.575495 -2.1485184,53.457095 C -2.3357476,53.338695 -2.519893,53.219241 -2.7009015,53.098756 C -2.8819101,52.978271 -3.0597819,52.856756 -3.2344641,52.734233 C -3.4091462,52.611711 -3.5806388,52.488182 -3.7488888,52.36367 C -3.9171389,52.239157 -4.0821465,52.113662 -4.2438587,51.987208 C -4.405571,51.860753 -4.5639879,51.73334 -4.7190566,51.604991 C -4.8741253,51.476641 -5.0258459,51.347357 -5.1741654,51.21716 C -5.3224849,51.086964 -5.4674033,50.955856 -5.6088679,50.82386 C -5.7503324,50.691864 -5.8883431,50.55898 -6.022847,50.425232 C -6.157351,50.291484 -6.2883482,50.156871 -6.4157857,50.021419 C -6.5432233,49.885966 -6.6671013,49.749673 -6.7873668,49.612563 C -6.9076324,49.475454 -7.0242854,49.337527 -7.1372732,49.198808 C -7.250261,49.060089 -7.3595835,48.920577 -7.4651878,48.780296 C -7.5707921,48.640015 -7.6726782,48.498965 -7.7707934,48.35717 C -7.8689085,48.215374 -7.9632526,48.072834 -8.0537729,47.929572 C -8.1442932,47.786309 -8.2309896,47.642326 -8.3138092,47.497644 C -8.3966289,47.352963 -8.4755719,47.207584 -8.5505853,47.061531 C -8.6255987,46.915478 -8.6966825,46.76875 -8.7637839,46.621373 C -8.8308853,46.473996 -8.8940042,46.325968 -8.9530879,46.177314 C -9.0121716,46.02866 -9.06722,45.87938 -9.1181803,45.729497 C -9.1691406,45.579614 -9.2160127,45.429129 -9.2587439,45.278064 C -9.3014751,45.127 -9.3400653,44.975356 -9.3744616,44.823158 C -9.408858,44.670959 -9.4390605,44.518206 -9.4650163,44.364921 C -9.4909721,44.211636 -9.5126812,44.05782 -9.5300908,43.903496 C -9.5475004,43.749172 -9.5606105,43.594341 -9.5693681,43.439026 C -9.5781258,43.283711 -9.582531,43.127912 -9.582531,42.971653 C -9.582531,42.815394 -9.5781258,42.659595 -9.5693681,42.50428 C -9.5606105,42.348965 -9.5475004,42.194134 -9.5300908,42.03981 C -9.5126812,41.885486 -9.4909721,41.73167 -9.4650163,41.578385 C -9.4390605,41.4251 -9.408858,41.272347 -9.3744616,41.120148 C -9.3400653,40.96795 -9.3014751,40.816306 -9.2587439,40.665242 C -9.2160127,40.514177 -9.1691406,40.363692 -9.1181803,40.213809 C -9.06722,40.063926 -9.0121716,39.914646 -8.9530879,39.765992 C -8.8940042,39.617338 -8.8308853,39.46931 -8.7637839,39.321933 C -8.6966825,39.174556 -8.6255987,39.027828 -8.5505853,38.881775 C -8.4755719,38.735722 -8.3966289,38.590343 -8.3138092,38.445662 C -8.2309896,38.30098 -8.1442932,38.156997 -8.0537729,38.013734 C -7.9632526,37.870472 -7.8689085,37.727932 -7.7707934,37.586136 C -7.6726782,37.444341 -7.5707921,37.303291 -7.4651878,37.16301 C -7.3595835,37.022729 -7.250261,36.883217 -7.1372732,36.744498 C -7.0242854,36.605779 -6.9076324,36.467852 -6.7873668,36.330743 C -6.6671013,36.193633 -6.5432233,36.05734 -6.4157857,35.921887 C -6.2883482,35.786435 -6.157351,35.651822 -6.022847,35.518074 C -5.8883431,35.384326 -5.7503324,35.251442 -5.6088679,35.119446 C -5.4674033,34.98745 -5.3224849,34.856342 -5.1741654,34.726146 C -5.0258459,34.595949 -4.8741253,34.466665 -4.7190566,34.338315 C -4.5639879,34.209966 -4.405571,34.082553 -4.2438587,33.956098 C -4.0821465,33.829644 -3.9171389,33.704149 -3.7488888,33.579636 C -3.5806388,33.455124 -3.4091462,33.331595 -3.2344641,33.209073 C -3.0597819,33.08655 -2.8819101,32.965035 -2.7009015,32.84455 C -2.519893,32.724065 -2.3357476,32.604611 -2.1485184,32.486211 C -1.9612891,32.367811 -1.7709759,32.250465 -1.5776317,32.134198 C -1.3842874,32.01793 -1.1879121,31.902741 -0.98855859,31.788653 C -0.78920506,31.674566 -0.58687332,31.56158 -0.38161621,31.44972 C -0.17635911,31.33786 0.03182336,31.227126 0.24287833,31.117541 C 0.45393331,31.007957 0.66786079,30.899521 0.88460793,30.792259 C 1.1013551,30.684997 1.3209219,30.578908 1.5432555,30.474016 C 1.765589,30.369124 1.9906894,30.265429 2.2185038,30.162955 C 2.4463181,30.060481 2.6768464,29.959228 2.9100358,29.859219 C 3.1432252,29.75921 3.3790757,29.660446 3.6175344,29.56295 C 3.8559931,29.465454 4.0970601,29.369227 4.3406825,29.274291 C 4.5843048,29.179356 4.8304826,29.085712 5.0791628,28.993385 C 5.3278431,28.901057 5.5790259,28.810045 5.8326584,28.720373 C 6.0862909,28.630701 6.3423731,28.542369 6.6008521,28.4554 C 6.8593311,28.368431 7.120207,28.282825 7.3834268,28.198607 C 7.6466466,28.114389 7.9122104,28.031558 8.1800653,27.950137 C 8.4479203,27.868717 8.7180663,27.788708 8.9904506,27.710133 C 9.2628349,27.631559 9.5374575,27.554419 9.8142655,27.478738 C 10.091073,27.403057 10.370067,27.328834 10.651193,27.256093 C 10.932319,27.183353 11.68537,26.936775 11.970709,26.867023"
       id="path11192"
       sodipodi:nodetypes="cssssssssssssssssssssssssssssssssssssssssscsssssssssssssssssssssscsssssssssssssssssssssssssssssssssssssssssssssssssssssssssssssssssssssssssssssssssssssssss" />
    <path
       style="fill:#ececec;fill-opacity:1;stroke:#000000;stroke-width:2.49846029;stroke-linecap:butt;stroke-miterlimit:4;stroke-dashoffset:0;stroke-opacity:1"
       d="M 127.46369,139.57328 C 127.18106,140.32309 126.24518,142.50385 125.94329,143.22741 C 125.6414,143.95098 125.33005,144.66113 125.00956,145.35727 C 124.68907,146.05341 124.35944,146.73553 124.02101,147.40306 C 123.68258,148.07058 123.33534,148.7235 122.97963,149.36123 C 122.62392,149.99896 122.25973,150.62149 121.8874,151.22824 C 121.51507,151.83498 121.13459,152.42594 120.7463,153.00053 C 120.35801,153.57511 119.9619,154.13331 119.55831,154.67455 C 119.15472,155.21578 118.74364,155.74005 118.32541,156.24675 C 117.90718,156.75345 117.48179,157.24259 117.04958,157.71358 C 116.61737,158.18457 116.17834,158.6374 115.73281,159.07149 C 115.28728,159.50558 114.83525,159.92092 114.37706,160.31692 C 113.91887,160.71293 113.45452,161.0896 112.98433,161.44634 C 112.51414,161.80308 112.03812,162.13989 111.55659,162.45618 C 111.07507,162.77247 110.58804,163.06824 110.09583,163.3429 C 109.60363,163.61755 109.10625,163.8711 108.60403,164.10294 C 108.1018,164.33477 107.59474,164.54491 107.08316,164.73275 C 106.57157,164.92059 106.05548,165.08613 105.5352,165.22878 C 105.01492,165.37144 104.49046,165.49121 103.96214,165.58749 C 103.43383,165.68378 102.90166,165.75659 102.36596,165.80532 C 101.83027,165.85406 101.29105,165.87872 100.74864,165.87872 C 100.47743,165.87872 100.20703,165.87255 99.93746,165.8603 C 99.667892,165.84804 99.399164,165.82969 99.131317,165.80532 C 98.86347,165.78095 98.596504,165.75057 98.33046,165.71424 C 98.064416,165.67791 97.799294,165.63564 97.535136,165.58749 C 97.270977,165.53935 97.007782,165.48534 96.745592,165.42553 C 96.483402,165.36572 96.222217,165.30011 95.962077,165.22878 C 95.701937,165.15746 95.442844,165.08041 95.184838,164.99771 C 94.926831,164.91501 94.669912,164.82667 94.414121,164.73275 C 94.158331,164.63883 93.903669,164.53934 93.650176,164.43434 C 93.396684,164.32935 93.144361,164.21885 92.89325,164.10294 C 92.642138,163.98702 92.392237,163.86567 92.143589,163.73897 C 91.894941,163.61227 91.647545,163.48022 91.401442,163.3429 C 91.155339,163.20557 90.91053,163.06296 90.667056,162.91515 C 90.423582,162.76734 90.181443,162.61432 89.940679,162.45618 C 89.699916,162.29803 89.460529,162.13476 89.222559,161.96643 C 88.984589,161.7981 88.748036,161.62471 88.512942,161.44634 C 88.277848,161.26797 88.044213,161.08462 87.812077,160.89636 C 87.579942,160.7081 87.349306,160.51493 87.120212,160.31692 C 86.891117,160.11892 86.663563,159.91608 86.437592,159.70849 C 86.211621,159.50089 85.987233,159.28853 85.764467,159.07149 C 85.541702,158.85444 85.320561,158.63271 85.101084,158.40637 C 84.881608,158.18003 84.663796,157.94907 84.447691,157.71358 C 84.231585,157.47808 84.017186,157.23805 83.804534,156.99356 C 83.591882,156.74906 83.380978,156.5001 83.171862,156.24675 C 82.962746,155.9934 82.755419,155.73565 82.549922,155.4736 C 82.344425,155.21154 82.140758,154.94516 81.938962,154.67455 C 81.737166,154.40393 81.537241,154.12907 81.339229,153.85004 C 81.141217,153.57101 80.945117,153.28782 80.750971,153.00053 C 80.556825,152.71324 80.364633,152.42185 80.174436,152.12644 C 79.984238,151.83104 79.796036,151.53161 79.60987,151.22824 C 79.423704,150.92486 79.239574,150.61754 79.057522,150.30635 C 78.87547,149.99516 78.695495,149.68009 78.51764,149.36123 C 78.339784,149.04237 78.164047,148.71971 77.99047,148.39332 C 77.816893,148.06693 77.645476,147.73682 77.47626,147.40306 C 77.307044,147.0693 77.14003,146.73188 76.975258,146.39089 C 76.810487,146.0499 76.647958,145.70534 76.487712,145.35727 C 76.327467,145.0092 76.169506,144.65763 76.013869,144.30263 C 75.858233,143.94763 75.704922,143.5892 75.553977,143.22741 C 75.403032,142.86563 75.254453,142.50049 75.108283,142.13207 C 74.962112,141.76365 74.505179,141.00919 74.120289,140.77347 C 73.778616,140.56422 74.014092,140.29881 73.877717,139.84798 M 73.10145,82.641112 C 73.222513,82.241734 73.346189,81.845267 73.472439,81.451785 C 73.598689,81.058303 73.727511,80.667806 73.858865,80.280368 C 73.990218,79.892929 74.124103,79.50855 74.260479,79.127303 C 74.396854,78.746057 74.535719,78.367943 74.677033,77.993036 C 74.818348,77.618129 74.962111,77.246429 75.108282,76.878009 C 75.254453,76.50959 75.403031,76.144451 75.553976,75.782667 C 75.704921,75.420884 75.858232,75.062454 76.013868,74.707454 C 76.169505,74.352454 76.327466,74.000882 76.487712,73.652813 C 76.647957,73.304744 76.810486,72.960178 76.975258,72.619189 C 77.140029,72.278199 77.307044,71.940786 77.476259,71.607024 C 77.645475,71.273262 77.816892,70.94315 77.990469,70.616764 C 78.164046,70.290377 78.339783,69.967715 78.517639,69.648851 C 84.209026,59.445216 92.070057,53.131364 100.74864,53.131364 C 109.42721,53.131364 117.28825,59.445216 122.97963,69.648851 C 123.15749,69.967715 123.33322,70.290377 123.5068,70.616764 C 123.68038,70.943151 123.85179,71.273262 124.02101,71.607024 C 124.19023,71.940786 124.35724,72.278199 124.52201,72.619189 C 124.68678,72.960178 124.84931,73.304744 125.00956,73.652813 C 125.1698,74.000882 125.32776,74.352454 125.4834,74.707454 C 125.63904,75.062454 125.79235,75.420884 125.94329,75.782667 C 126.09424,76.144451 126.24282,76.50959 126.38899,76.878009 C 126.53516,77.246429 126.67892,77.618129 126.82024,77.993036 C 126.96155,78.367943 127.10042,78.746056 127.23679,79.127303 C 127.37317,79.50855 127.50705,79.892929 127.63841,80.280367 C 127.76976,80.667806 127.89858,81.058303 128.02483,81.451785 C 128.15108,81.845267 128.50009,82.898937 128.62115,83.298314"
       id="path11195"
       sodipodi:nodetypes="cssssssssssssssssssssssssssssssssssssssssssssssssssssssssssssscsssssssssssscsssssssssssss" />
  </g>
</svg>
